<?xml version="1.0" encoding="UTF-8"?>
<svg width="100px" height="100px" viewBox="0 0 100 100" version="1.1" xmlns="http://www.w3.org/2000/svg" xmlns:xlink="http://www.w3.org/1999/xlink">
    <title>PDF Icon</title>
    <g stroke="none" stroke-width="1" fill="none" fill-rule="evenodd">
        <g transform="translate(10.000000, 5.000000)">
            <path d="M55,0 L10,0 C4.5,0 0,4.5 0,10 L0,80 C0,85.5 4.5,90 10,90 L70,90 C75.5,90 80,85.5 80,80 L80,25 L55,0 Z" fill="#E74C3C"></path>
            <path d="M55,0 L55,25 L80,25 L55,0 Z" fill="#C0392B"></path>
            <path d="M20,45 L60,45 L60,50 L20,50 L20,45 Z M20,55 L60,55 L60,60 L20,60 L20,55 Z M20,65 L60,65 L60,70 L20,70 L20,65 Z" fill="#FFFFFF"></path>
            <path d="M25,20 L55,20 L55,35 L25,35 L25,20 Z" fill="#FFFFFF"></path>
            <path d="M30,25 L50,25 L50,30 L30,30 L30,25 Z" fill="#E74C3C"></path>
        </g>
    </g>
</svg>
